HIERARCHY
ROOT hip
{
  OFFSET 0.00112043 5.09927 -9.65472
  CHANNELS 6 Xposition Yposition Zposition Zrotation Xrotation Yrotation
  JOINT abdomen
  {
    OFFSET 0 -1.186 -1.5018
    CHANNELS 3 Zrotation Xrotation Yrotation
    JOINT abdomen2
    {
      OFFSET 0 9.964 0.2134
      CHANNELS 3 Zrotation Xrotation Yrotation
      JOINT chest
      {
        OFFSET 0 13.134 -3.2573
        CHANNELS 3 Zrotation Xrotation Yrotation
        JOINT neck
        {
          OFFSET 0 20.686 -1.6905
          CHANNELS 3 Zrotation Xrotation Yrotation
          JOINT head
          {
            OFFSET 0 7.238 -0.1237
            CHANNELS 3 Zrotation Xrotation Yrotation
            End Site
            {
              OFFSET 0 0 0
            }
          }
        }
        JOINT lCollar
        {
          OFFSET 1.7069 20.075 5.0056
          CHANNELS 3 Zrotation Xrotation Yrotation
          JOINT lShldr
          {
            OFFSET 13.6458 -0.047 -4.849
            CHANNELS 3 Zrotation Xrotation Yrotation
            JOINT lForeArm
            {
              OFFSET 28.3255 -0.9759 2.2888
              CHANNELS 3 Zrotation Xrotation Yrotation
              JOINT lHand
              {
                OFFSET 22.1583 -0.53 10.8316
                CHANNELS 3 Zrotation Xrotation Yrotation
                JOINT lThumb1
                {
                  OFFSET 0.786 0.112 2.5817
                  CHANNELS 3 Zrotation Xrotation Yrotation
                  JOINT lThumb2
                  {
                    OFFSET 0.3601 -0.878 4.2331
                    CHANNELS 3 Zrotation Xrotation Yrotation
                    JOINT lThumb2_End
                    {
                      OFFSET 1.8127 -1.216 2.2227
                      CHANNELS 3 Zrotation Xrotation Yrotation
                      End Site
                      {
                        OFFSET 0.0181 -0.0122 0.0222
                      }
                    }
                  }
                }
                JOINT lCarpal1
                {
                  OFFSET 0.9571 1.114 1.7695
                  CHANNELS 3 Zrotation Xrotation Yrotation
                  JOINT lIndex1
                  {
                    OFFSET 4.1246 0.487 4.1451
                    CHANNELS 3 Zrotation Xrotation Yrotation
                    JOINT lIndex2
                    {
                      OFFSET 3.4052 -1.454 2.7682
                      CHANNELS 3 Zrotation Xrotation Yrotation
                      JOINT lIndex2_End
                      {
                        OFFSET 1.4531 -1.795 1.2713
                        CHANNELS 3 Zrotation Xrotation Yrotation
                        End Site
                        {
                          OFFSET 0.0145 -0.0179 0.0127
                        }
                      }
                    }
                  }
                  JOINT lMid1
                  {
                    OFFSET 5.6954 0.21 2.1184
                    CHANNELS 3 Zrotation Xrotation Yrotation
                    JOINT lMid2
                    {
                      OFFSET 3.9766 -1.54 2.3863
                      CHANNELS 3 Zrotation Xrotation Yrotation
                      JOINT lMid2_End
                      {
                        OFFSET 1.4042 -1.926 1.125
                        CHANNELS 3 Zrotation Xrotation Yrotation
                        End Site
                        {
                          OFFSET 0.014 -0.0193 0.0113
                        }
                      }
                    }
                  }
                }
                JOINT lCarpal2
                {
                  OFFSET 2.0956 0.66 -0.3894
                  CHANNELS 3 Zrotation Xrotation Yrotation
                  JOINT lRing1
                  {
                    OFFSET 5.0395 -0.09 2.4971
                    CHANNELS 3 Zrotation Xrotation Yrotation
                    JOINT lRing2
                    {
                      OFFSET 3.7921 -1.552 1.4806
                      CHANNELS 3 Zrotation Xrotation Yrotation
                      JOINT lRing2_End
                      {
                        OFFSET 1.4655 -1.808 0.9609
                        CHANNELS 3 Zrotation Xrotation Yrotation
                        End Site
                        {
                          OFFSET 0.0147 -0.0181 0.0096
                        }
                      }
                    }
                  }
                  JOINT lPinky1
                  {
                    OFFSET 4.9141 -1.269 0.3591
                    CHANNELS 3 Zrotation Xrotation Yrotation
                    JOINT lPinky2
                    {
                      OFFSET 3.1477 -1.685 0.8462
                      CHANNELS 3 Zrotation Xrotation Yrotation
                      JOINT lPinky2_End
                      {
                        OFFSET 0.8055 -1.585 0.7955
                        CHANNELS 3 Zrotation Xrotation Yrotation
                        End Site
                        {
                          OFFSET 0.0081 -0.0158 0.008
                        }
                      }
                    }
                  }
                }
              }
            }
          }
        }
        JOINT rCollar
        {
          OFFSET -1.7069 20.075 5.0056
          CHANNELS 3 Zrotation Xrotation Yrotation
          JOINT rShldr
          {
            OFFSET -13.6458 -0.047 -4.849
            CHANNELS 3 Zrotation Xrotation Yrotation
            JOINT rForeArm
            {
              OFFSET -28.3255 -0.9759 2.2888
              CHANNELS 3 Zrotation Xrotation Yrotation
              JOINT rHand
              {
                OFFSET -22.1583 -0.53 10.8316
                CHANNELS 3 Zrotation Xrotation Yrotation
                JOINT rThumb1
                {
                  OFFSET -0.786 0.112 2.5817
                  CHANNELS 3 Zrotation Xrotation Yrotation
                  JOINT rThumb2
                  {
                    OFFSET -0.3601 -0.878 4.2331
                    CHANNELS 3 Zrotation Xrotation Yrotation
                    JOINT rThumb2_End
                    {
                      OFFSET -1.8127 -1.216 2.2227
                      CHANNELS 3 Zrotation Xrotation Yrotation
                      End Site
                      {
                        OFFSET -0.0181 -0.0122 0.0222
                      }
                    }
                  }
                }
                JOINT rCarpal1
                {
                  OFFSET -0.9571 1.114 1.7695
                  CHANNELS 3 Zrotation Xrotation Yrotation
                  JOINT rIndex1
                  {
                    OFFSET -4.1246 0.487 4.1451
                    CHANNELS 3 Zrotation Xrotation Yrotation
                    JOINT rIndex2
                    {
                      OFFSET -3.4052 -1.454 2.7682
                      CHANNELS 3 Zrotation Xrotation Yrotation
                      JOINT rIndex2_End
                      {
                        OFFSET -1.4531 -1.795 1.2713
                        CHANNELS 3 Zrotation Xrotation Yrotation
                        End Site
                        {
                          OFFSET -0.0145 -0.018 0.0127
                        }
                      }
                    }
                  }
                  JOINT rMid1
                  {
                    OFFSET -5.6954 0.21 2.1184
                    CHANNELS 3 Zrotation Xrotation Yrotation
                    JOINT rMid2
                    {
                      OFFSET -3.9766 -1.54 2.3863
                      CHANNELS 3 Zrotation Xrotation Yrotation
                      JOINT rMid2_End
                      {
                        OFFSET -1.4042 -1.926 1.125
                        CHANNELS 3 Zrotation Xrotation Yrotation
                        End Site
                        {
                          OFFSET -0.014 -0.0193 0.0113
                        }
                      }
                    }
                  }
                }
                JOINT rCarpal2
                {
                  OFFSET -2.0956 0.66 -0.3894
                  CHANNELS 3 Zrotation Xrotation Yrotation
                  JOINT rRing1
                  {
                    OFFSET -5.0395 -0.09 2.4971
                    CHANNELS 3 Zrotation Xrotation Yrotation
                    JOINT rRing2
                    {
                      OFFSET -3.7921 -1.552 1.4806
                      CHANNELS 3 Zrotation Xrotation Yrotation
                      JOINT rRing2_End
                      {
                        OFFSET -1.4655 -1.808 0.9609
                        CHANNELS 3 Zrotation Xrotation Yrotation
                        End Site
                        {
                          OFFSET -0.0147 -0.0181 0.0096
                        }
                      }
                    }
                  }
                  JOINT rPinky1
                  {
                    OFFSET -4.9141 -1.269 0.3592
                    CHANNELS 3 Zrotation Xrotation Yrotation
                    JOINT rPinky2
                    {
                      OFFSET -3.1477 -1.685 0.8462
                      CHANNELS 3 Zrotation Xrotation Yrotation
                      JOINT rPinky2_End
                      {
                        OFFSET -0.8055 -1.585 0.7955
                        CHANNELS 3 Zrotation Xrotation Yrotation
                        End Site
                        {
                          OFFSET -0.0081 -0.0158 0.008
                        }
                      }
                    }
                  }
                }
              }
            }
          }
        }
      }
    }
  }
  JOINT lThigh
  {
    OFFSET 8.367 -8.2066 0.5982
    CHANNELS 3 Zrotation Xrotation Yrotation
    JOINT lShin
    {
      OFFSET 2.1923 -43.463 -0.4932
      CHANNELS 3 Zrotation Xrotation Yrotation
      JOINT lFoot
      {
        OFFSET 0.7333 -45.8593 -2.6451
        CHANNELS 3 Zrotation Xrotation Yrotation
        End Site
        {
          OFFSET 2.6618 -4.2699 12.3931
        }
      }
    }
  }
  JOINT rThigh
  {
    OFFSET -8.367 -8.2066 0.5982
    CHANNELS 3 Zrotation Xrotation Yrotation
    JOINT rShin
    {
      OFFSET -2.1923 -43.463 -0.4931
      CHANNELS 3 Zrotation Xrotation Yrotation
      JOINT rFoot
      {
        OFFSET -0.7333 -45.8593 -2.6451
        CHANNELS 3 Zrotation Xrotation Yrotation
        End Site
        {
          OFFSET -2.6618 -4.2699 12.3931
        }
      }
    }
  }
}
MOTION
Frames:	5
Frame Time:	0.0333333
-15.827 0.524456 -21.0757 -180 -89.9981 -180 -5.32864 13.3526 -4.65216 -9.92252 27.0534 -8.32985 -9.92253 27.0534 -8.32985 1.95849 -6.68009 -16.0968 10.9396 -30.676 34.9985 0.00621615 -3.75718 -36.4729 -91.7373 -70.8361 -45.2078 3.48481 56.0568 -70.1211 46.3872 -18.0129 -10.9054 7.95139e-016 1.59028e-015 -0 -1.05631e-007 -3.99492e-007 1.30815e-006 7.95139e-016 3.18055e-015 3.18055e-015 7.95139e-016 1.59028e-015 -3.18055e-015 -7.95139e-016 1.59028e-015 3.18055e-015 -1.05631e-007 -3.99492e-007 1.30815e-006 8.82781e-032 -1.59028e-015 3.18055e-015 -7.95139e-016 1.59028e-015 3.18055e-015 -1.05631e-007 -3.99492e-007 1.30815e-006 8.82781e-032 -1.59028e-015 3.18055e-015 7.95139e-016 1.59028e-015 -3.18055e-015 -7.95139e-016 1.59028e-015 3.18055e-015 -1.05631e-007 -3.99492e-007 1.30815e-006 8.82781e-032 -1.59028e-015 3.18055e-015 -7.95139e-016 1.59028e-015 3.18055e-015 -1.05631e-007 -3.99492e-007 1.30815e-006 8.82781e-032 -1.59028e-015 3.18055e-015 19.1094 -33.1466 -35.2557 46.5737 51.9349 -27.82 -81.8006 -6.51688 23.4227 -8.40175 3.18684 8.65771 1.09332e-015 7.95139e-016 -0 2.28602e-015 0 7.95139e-016 5.96354e-016 0 1.59028e-015 -3.97569e-016 7.95139e-016 -7.95139e-016 4.96962e-016 7.95139e-016 6.36111e-015 1.78906e-015 7.95139e-016 -0 3.37934e-015 0 7.95139e-016 4.96962e-016 7.95139e-016 6.36111e-015 1.78906e-015 7.95139e-016 -0 3.37934e-015 0 7.95139e-016 -3.97569e-016 7.95139e-016 -7.95139e-016 4.96962e-016 7.95139e-016 6.36111e-015 1.78906e-015 7.95139e-016 -0 3.37934e-015 0 7.95139e-016 4.96962e-016 7.95139e-016 6.36111e-015 1.78906e-015 7.95139e-016 -0 3.37934e-015 0 7.95139e-016 14.9787 -60.9098 42.3548 30.9527 71.4425 -28.0776 9.2736 27.732 -13.8164 -78.9069 -26.3868 -71.9524 -144.321 77.102 137.853 -61.2364 16.484 71.7618 
-15.8271 0.524404 -21.0757 -180 -89.9981 -180 -5.32604 13.3199 -4.65076 -9.91849 26.9879 -8.32949 -9.91849 26.9879 -8.32949 1.95956 -6.92416 -16.0884 10.8568 -29.9383 34.8347 -0.0406317 -3.58354 -36.4687 -91.7374 -70.8362 -45.2078 3.48483 56.0568 -70.1211 46.3872 -18.0129 -10.9054 -1.45886e-009 -5.66579e-007 1.76355e-006 7.95139e-016 0 -0 1.84536e-007 5.92106e-007 5.79342e-007 -7.95139e-016 1.59028e-015 -0 -1.45886e-009 -5.66579e-007 1.76355e-006 1.59028e-015 4.77083e-015 -3.18055e-015 1.84536e-007 5.92106e-007 5.79342e-007 -1.45886e-009 -5.66579e-007 1.76355e-006 1.59028e-015 4.77083e-015 -3.18055e-015 1.84536e-007 5.92106e-007 5.79342e-007 -7.95139e-016 1.59028e-015 -0 -1.45886e-009 -5.66579e-007 1.76355e-006 1.59028e-015 4.77083e-015 -3.18055e-015 1.84536e-007 5.92106e-007 5.79342e-007 -1.45886e-009 -5.66579e-007 1.76355e-006 1.59028e-015 4.77083e-015 -3.18055e-015 1.84536e-007 5.92106e-007 5.79342e-007 19.1094 -33.1466 -35.2557 46.5737 51.9349 -27.8201 -81.8006 -6.51687 23.4226 -8.36881 3.29149 8.72834 1.19271e-015 -2.38542e-015 2.38542e-015 7.28905e-008 1.71999e-007 -1.69491e-006 5.96354e-016 7.95139e-016 3.97569e-015 -2.98177e-016 -1.59028e-015 1.59028e-015 -2.78299e-015 0 7.15625e-015 7.28905e-008 1.71999e-007 -1.69491e-006 1.98785e-016 0 3.18055e-015 -2.78299e-015 0 7.15625e-015 7.28905e-008 1.71999e-007 -1.69491e-006 1.98785e-016 0 3.18055e-015 -2.98177e-016 -1.59028e-015 1.59028e-015 -2.78299e-015 0 7.15625e-015 7.28905e-008 1.71999e-007 -1.69491e-006 1.98785e-016 0 3.18055e-015 -2.78299e-015 0 7.15625e-015 7.28905e-008 1.71999e-007 -1.69491e-006 1.98785e-016 0 3.18055e-015 14.9788 -60.9099 42.3548 30.9527 71.4426 -28.0777 9.27358 27.732 -13.8164 -78.8705 -26.4453 -71.8915 -144.321 77.1022 137.848 -61.1721 16.5314 71.7371 
-15.8272 0.524353 -21.0757 -180 -89.9981 -180 -5.32362 13.2895 -4.64945 -9.91472 26.9268 -8.32914 -9.91472 26.9268 -8.32915 1.96031 -7.15181 -16.0805 10.7819 -29.2488 34.6831 -0.0842657 -3.42182 -36.4645 -91.7373 -70.8362 -45.2078 3.48478 56.0568 -70.1211 46.3872 -18.0129 -10.9054 -7.95139e-016 1.59028e-015 -3.18055e-015 -7.95139e-016 3.18055e-015 -3.18055e-015 1.84544e-007 5.92032e-007 5.79396e-007 -0 -1.59028e-015 -0 1.59028e-015 4.77083e-015 6.36111e-015 -1.59028e-015 0 -3.18055e-015 1.84544e-007 5.92032e-007 5.79396e-007 1.59028e-015 4.77083e-015 6.36111e-015 -1.59028e-015 0 -3.18055e-015 1.84544e-007 5.92032e-007 5.79396e-007 -0 -1.59028e-015 -0 1.59028e-015 4.77083e-015 6.36111e-015 -1.59028e-015 0 -3.18055e-015 1.84544e-007 5.92032e-007 5.79396e-007 1.59028e-015 4.77083e-015 6.36111e-015 -1.59028e-015 0 -3.18055e-015 1.84544e-007 5.92032e-007 5.79396e-007 19.1093 -33.1465 -35.2557 46.5737 51.9349 -27.8201 -81.8006 -6.51687 23.4227 -8.33826 3.38901 8.79407 1.68967e-015 0 -0 1.59028e-015 1.59028e-015 -0 9.93923e-017 1.59028e-015 -0 1.68967e-015 -7.95139e-016 -0 8.94531e-016 2.38542e-015 6.36111e-015 -5.96354e-016 7.95139e-016 -0 -6.95746e-016 7.95139e-016 -0 8.94531e-016 2.38542e-015 6.36111e-015 -5.96354e-016 7.95139e-016 -0 -6.95746e-016 7.95139e-016 -0 1.68967e-015 -7.95139e-016 -0 8.94531e-016 2.38542e-015 6.36111e-015 -5.96354e-016 7.95139e-016 -0 -6.95746e-016 7.95139e-016 -0 8.94531e-016 2.38542e-015 6.36111e-015 -5.96354e-016 7.95139e-016 -0 -6.95746e-016 7.95139e-016 -0 14.9789 -60.9099 42.3549 30.9527 71.4425 -28.0776 9.27357 27.7321 -13.8164 -78.8398 -26.4951 -71.836 -144.319 77.1015 137.848 -61.1123 16.5754 71.714 
-15.8272 0.524304 -21.0756 -180 -89.9981 -180 -5.32119 13.259 -4.64813 -9.91095 26.8658 -8.32877 -9.91095 26.8658 -8.32877 1.96131 -7.37967 -16.0726 10.7095 -28.5581 34.5334 -0.127884 -3.26013 -36.4603 -91.7373 -70.8362 -45.2077 3.48477 56.0568 -70.121 46.3872 -18.0129 -10.9054 -1.76556e-031 1.59028e-015 6.36111e-015 -3.69105e-007 -1.18392e-006 -1.1589e-006 -7.95139e-016 -3.18055e-015 -0 0 1.59028e-015 -0 -3.53113e-031 1.59028e-015 1.27222e-014 -3.69105e-007 -1.18392e-006 -1.1589e-006 -1.59028e-015 0 3.18055e-015 -3.53113e-031 1.59028e-015 1.27222e-014 -3.69105e-007 -1.18392e-006 -1.1589e-006 -1.59028e-015 0 3.18055e-015 0 1.59028e-015 -0 -3.53113e-031 1.59028e-015 1.27222e-014 -3.69105e-007 -1.18392e-006 -1.1589e-006 -1.59028e-015 0 3.18055e-015 -3.53113e-031 1.59028e-015 1.27222e-014 -3.69105e-007 -1.18392e-006 -1.1589e-006 -1.59028e-015 0 3.18055e-015 19.1093 -33.1466 -35.2557 46.5737 51.9349 -27.8201 -81.8006 -6.51688 23.4227 -8.3078 3.48657 8.85974 8.25348e-007 4.68149e-007 7.86059e-008 7.13926e-008 1.71638e-007 -1.69508e-006 9.18931e-007 2.16019e-007 -1.65938e-006 -2.28602e-015 0 1.59028e-015 8.25348e-007 4.68149e-007 7.86059e-008 7.13927e-008 1.71638e-007 -1.69508e-006 9.18931e-007 2.16019e-007 -1.65938e-006 8.25348e-007 4.68149e-007 7.86059e-008 7.13927e-008 1.71638e-007 -1.69508e-006 9.18931e-007 2.16019e-007 -1.65938e-006 -2.28602e-015 0 1.59028e-015 8.25348e-007 4.68149e-007 7.86059e-008 7.13927e-008 1.71638e-007 -1.69508e-006 9.18931e-007 2.16019e-007 -1.65938e-006 8.25348e-007 4.68149e-007 7.86059e-008 7.13927e-008 1.71638e-007 -1.69508e-006 9.18931e-007 2.16019e-007 -1.65938e-006 14.979 -60.91 42.355 30.9527 71.4426 -28.0777 9.27353 27.7321 -13.8164 -78.8067 -26.5483 -71.7795 -144.319 77.1014 137.845 -61.0524 16.6195 71.6909 
-15.8273 0.524256 -21.0756 -180 -89.9981 -180 -5.31876 13.2285 -4.64682 -9.90717 26.8048 -8.32839 -9.90717 26.8047 -8.32839 1.9625 -7.60714 -16.0648 10.6396 -27.8664 34.3854 -0.171545 -3.09839 -36.4562 -91.7374 -70.8361 -45.2078 3.4848 56.0568 -70.1211 46.3872 -18.0129 -10.9054 -1.76556e-031 -3.18055e-015 -3.18055e-015 2.15804e-009 5.67125e-007 -1.76327e-006 -8.82781e-032 -1.59028e-015 -3.18055e-015 -1.76556e-031 -3.18055e-015 -3.18055e-015 2.38542e-015 -1.59028e-015 1.27222e-014 2.15804e-009 5.67125e-007 -1.76327e-006 -1.76556e-031 -3.18055e-015 -3.18055e-015 2.38542e-015 -1.59028e-015 1.27222e-014 2.15804e-009 5.67125e-007 -1.76327e-006 -1.76556e-031 -3.18055e-015 -3.18055e-015 -1.76556e-031 -3.18055e-015 -3.18055e-015 2.38542e-015 -1.59028e-015 1.27222e-014 2.15804e-009 5.67125e-007 -1.76327e-006 -1.76556e-031 -3.18055e-015 -3.18055e-015 2.38542e-015 -1.59028e-015 1.27222e-014 2.15804e-009 5.67125e-007 -1.76327e-006 -1.76556e-031 -3.18055e-015 -3.18055e-015 19.1093 -33.1466 -35.2557 46.5737 51.9349 -27.82 -81.8006 -6.51688 23.4227 -8.27745 3.58416 8.92537 2.08724e-015 -1.59028e-015 -0 -8.25557e-007 -4.67836e-007 -7.81874e-008 7.95139e-016 7.95139e-016 -7.95139e-016 5.96354e-016 0 -7.95139e-016 -2.98177e-016 0 7.15625e-015 -8.25557e-007 -4.67836e-007 -7.81874e-008 9.93923e-017 2.38542e-015 7.95139e-016 -2.98177e-016 0 7.15625e-015 -8.25557e-007 -4.67836e-007 -7.81874e-008 9.93923e-017 2.38542e-015 7.95139e-016 5.96354e-016 0 -7.95139e-016 -2.98177e-016 0 7.15625e-015 -8.25557e-007 -4.67836e-007 -7.81874e-008 9.93923e-017 2.38542e-015 7.95139e-016 -2.98177e-016 0 7.15625e-015 -8.25557e-007 -4.67836e-007 -7.81874e-008 9.93923e-017 2.38542e-015 7.95139e-016 14.9791 -60.91 42.355 30.9527 71.4426 -28.0777 9.2735 27.7322 -13.8164 -78.7741 -26.6006 -71.7231 -144.318 77.1013 137.843 -60.9925 16.6635 71.6678 
